<svg xmlns="http://www.w3.org/2000/svg" data-name="Layer 2" viewBox="0 0 64 64" id="Clip"><path d="M36.57,6.32a1.19,1.19,0,0,0-.33.22L7.53,35.26a15.18,15.18,0,0,0-.78,21A14.87,14.87,0,0,0,17.5,61.14h.37a14.86,14.86,0,0,0,10.59-4.39l29-29a.83.83,0,0,0,.2-.32A15,15,0,0,0,36.57,6.32ZM52.73,24,32.39,44.34l-.11.1a4.56,4.56,0,0,1-5.9.29,4.4,4.4,0,0,1-.48-6.39L42.72,21.5a3,3,0,0,0-4.25-4.24l-17,17a.8.8,0,0,0-.15.21,10.39,10.39,0,0,0,.47,14.21,10.51,10.51,0,0,0,3.82,2.44l-1.15,1.15A9.21,9.21,0,0,1,12,52.93a8.88,8.88,0,0,1-3.08-6.48,9,9,0,0,1,2.62-6.67l28.4-28.4.37-.32a9,9,0,0,1,5.9-2.18,9.42,9.42,0,0,1,1.06.06,8.91,8.91,0,0,1,6.27,3.71A9.26,9.26,0,0,1,52.73,24Z" fill="#14b8a6" class="color000000 svgShape"></path></svg>
